<?xml version="1.0" ?><svg id="Outline" viewBox="0 0 512 512" xmlns="http://www.w3.org/2000/svg"><defs><style>.cls-1{fill:#262626;}</style></defs><path class="cls-1" d="M361.91,49.28H148.09A44.78,44.78,0,0,0,103.36,94v21.13H85.59a11.34,11.34,0,0,0,0,22.68h17.77V244.66H85.59a11.34,11.34,0,0,0,0,22.68h17.77V374.19H85.59a11.34,11.34,0,0,0,0,22.68h17.77V418a44.78,44.78,0,0,0,44.73,44.72H361.91A44.78,44.78,0,0,0,406.64,418V94A44.78,44.78,0,0,0,361.91,49.28ZM384,418a22.07,22.07,0,0,1-22,22H148.09a22.07,22.07,0,0,1-22-22V396.87h17.77a11.34,11.34,0,0,0,0-22.68H126V267.34h17.77a11.34,11.34,0,1,0,0-22.68H126V137.81h17.77a11.34,11.34,0,1,0,0-22.68H126V94a22.07,22.07,0,0,1,22-22H361.91a22.07,22.07,0,0,1,22,22Z"/><path class="cls-1" d="M255,259.58a50,50,0,1,0-35.4-14.64A49.91,49.91,0,0,0,255,259.58Zm-19.36-69.4a27.38,27.38,0,1,1-8,19.36A27.33,27.33,0,0,1,235.64,190.18Z"/><path class="cls-1" d="M255,267.25a73.53,73.53,0,0,0-73.45,73.45A11.34,11.34,0,0,0,192.89,352H317.11a11.34,11.34,0,0,0,11.34-11.34A73.53,73.53,0,0,0,255,267.25Zm-49.49,62.11a50.77,50.77,0,0,1,99,0Z"/></svg>