<?xml version="1.0" encoding="utf-8"?>
<!-- Generator: Adobe Illustrator 24.1.1, SVG Export Plug-In . SVG Version: 6.00 Build 0)  -->
<svg version="1.1" id="Layer_1" xmlns="http://www.w3.org/2000/svg" xmlns:xlink="http://www.w3.org/1999/xlink" x="0px" y="0px"
	 viewBox="0 0 512 512" style="enable-background:new 0 0 512 512;" xml:space="preserve">
<g>
	<path d="M227.6,85.3H85.3C38.2,85.4,0,123.5,0,170.7v256C0,473.8,38.2,512,85.3,512h256c47.1,0,85.3-38.2,85.3-85.3V284.4
		c0-15.7-12.7-28.4-28.4-28.4c-15.7,0-28.4,12.7-28.4,28.4v142.2c0,15.7-12.8,28.4-28.4,28.4h-256c-15.7,0-28.4-12.8-28.4-28.4v-256
		c0-15.7,12.8-28.4,28.4-28.4h142.2c15.7,0,28.4-12.7,28.4-28.4C256,98.1,243.3,85.3,227.6,85.3L227.6,85.3z"/>
	<path d="M219.2,333L503.7,48.6c11.1-11.1,11.1-29.1,0-40.2c-11.1-11.1-29.1-11.1-40.2,0L179,292.8c-11.1,11.1-11.1,29.1,0,40.2
		S208.1,344.1,219.2,333"/>
	<path d="M341.3,56.9h113.8l0,113.8c0,15.7,12.7,28.4,28.4,28.4c15.7,0,28.4-12.7,28.4-28.4l0-142.2c0-7.5-3-14.8-8.3-20.1
		S491,0,483.6,0H341.3c-15.7,0-28.4,12.7-28.4,28.4C312.9,44.2,325.6,56.9,341.3,56.9L341.3,56.9z"/>
</g>
</svg>
