<?xml version="1.0" encoding="UTF-8"?>
<svg width="314px" height="25px" viewBox="0 0 314 25" version="1.1" xmlns="http://www.w3.org/2000/svg" xmlns:xlink="http://www.w3.org/1999/xlink">
    <!-- Generator: sketchtool 55.2 (78181) - https://sketchapp.com -->
    <title>1264C39C-7B99-47DE-A2C8-E82E2882A31C@1.00x</title>
    <desc>Created with sketchtool.</desc>
    <defs>
        <linearGradient x1="9.03353425%" y1="54.8722046%" x2="93.3121644%" y2="44.8492851%" id="linearGradient-1">
            <stop stop-color="#1C1E3F" offset="0%"></stop>
            <stop stop-color="#294389" offset="100%"></stop>
        </linearGradient>
        <linearGradient x1="15.6373166%" y1="-3.37742088%" x2="77.5862069%" y2="87.0099197%" id="linearGradient-2">
            <stop stop-color="#832F24" offset="0%"></stop>
            <stop stop-color="#D2572A" offset="30.4536873%"></stop>
            <stop stop-color="#F99B21" offset="100%"></stop>
        </linearGradient>
        <linearGradient x1="0.877015833%" y1="49.9986052%" x2="101.006948%" y2="49.9986052%" id="linearGradient-3">
            <stop stop-color="#00933E" offset="0%"></stop>
            <stop stop-color="#1F9F41" offset="28.17%"></stop>
            <stop stop-color="#4FB344" offset="76.14%"></stop>
            <stop stop-color="#62BA46" offset="100%"></stop>
        </linearGradient>
        <path d="M0.376,0.076 L0.376,1.055 L1.402,1.055 C1.439,1.055 1.493,1.049 1.514,1.046 C1.726,1.009 1.907,0.831 1.907,0.565 C1.907,0.3 1.726,0.122 1.514,0.085 C1.493,0.082 1.439,0.076 1.402,0.076 L0.376,0.076 Z" id="path-4"></path>
        <linearGradient x1="0.797838333%" y1="49.9925987%" x2="100.83632%" y2="49.9925987%" id="linearGradient-6">
            <stop stop-color="#0C4B85" offset="0%"></stop>
            <stop stop-color="#0469AC" offset="62.11%"></stop>
            <stop stop-color="#0077BF" offset="100%"></stop>
        </linearGradient>
        <linearGradient x1="1.11876105%" y1="49.9981364%" x2="100.879367%" y2="49.9981364%" id="linearGradient-7">
            <stop stop-color="#A0003F" offset="0.08%"></stop>
            <stop stop-color="#A4013F" offset="5.26%"></stop>
            <stop stop-color="#D81245" offset="68.83%"></stop>
            <stop stop-color="#EC1847" offset="100%"></stop>
        </linearGradient>
        <linearGradient x1="0.877015833%" y1="49.9986052%" x2="101.006948%" y2="49.9986052%" id="linearGradient-8">
            <stop stop-color="#00933E" offset="0%"></stop>
            <stop stop-color="#1F9F41" offset="28.17%"></stop>
            <stop stop-color="#4FB344" offset="76.14%"></stop>
            <stop stop-color="#62BA46" offset="100%"></stop>
        </linearGradient>
        <linearGradient x1="0.877015833%" y1="49.9986052%" x2="101.006948%" y2="49.9986052%" id="linearGradient-9">
            <stop stop-color="#00933E" offset="0%"></stop>
            <stop stop-color="#1F9F41" offset="28.17%"></stop>
            <stop stop-color="#4FB344" offset="76.14%"></stop>
            <stop stop-color="#62BA46" offset="100%"></stop>
        </linearGradient>
        <polygon id="path-10" points="0 0.0664233508 29.9017039 0.0664233508 29.9017039 18.8810191 0 18.8810191"></polygon>
    </defs>
    <g id="CC-logos-update" stroke="none" stroke-width="1" fill="none" fill-rule="evenodd">
        <g id="New-Deal---Checkout" transform="translate(-185.000000, -336.000000)">
            <g id="Group-23" transform="translate(156.000000, 234.000000)">
                <g id="string-01-/-7-cards-/-border" transform="translate(29.000000, 102.000000)">
                    <g id="01-Visa-/-Primitives-/-border" stroke-width="1">
                        <g id="visa">
                            <g id="Layer_1">
                                <path d="M34.118,24.5561 L4.0487,24.5561 C2.1348,24.5561 0.5833,23.0046 0.5833,21.0907 L0.5833,4.0215 C0.5833,2.1076 2.1348,0.5561 4.0487,0.5561 L34.118,0.5561 C36.0319,0.5561 37.5834,2.1076 37.5834,4.0215 L37.5834,21.0908 C37.5833,23.0047 36.0318,24.5561 34.118,24.5561 Z" id="Shape" fill="#FFFFFF"></path>
                                <path d="M13.2548603,8.15971507 L10.8997918,14.1125151 L9.94717808,9.0509589 C9.83540822,8.4859726 9.39392877,8.15971507 8.9038137,8.15971507 L5.05377534,8.15971507 L5,8.41363288 C5.79036712,8.58516164 6.68828493,8.8617863 7.23232877,9.15774247 C7.56526027,9.33855342 7.66023014,9.49658082 7.76954521,9.92624658 L9.57389589,16.905611 L11.9650959,16.905611 L15.6309479,8.15971507 L13.2548603,8.15971507 M16.6020493,8.15971507 L14.7304986,16.9056877 L16.9930521,16.9056877 L18.8637589,8.15971507 L16.6020493,8.15971507 M29.5737973,10.5223781 L30.2589918,13.8065096 L28.3823781,13.8065096 L29.5737973,10.5223781 M29.2416329,8.15971507 C28.8078247,8.15971507 28.4420603,8.41286575 28.2789699,8.80126027 L24.8846795,16.9056877 L27.2590795,16.9056877 L27.7316274,15.5998904 L30.6331945,15.5998904 L30.9072877,16.9056877 L33,16.9056877 L31.1737863,8.15971507 L29.2416329,8.15971507 M19.4809096,10.890674 C19.4649534,12.150137 20.6033644,12.8530521 21.4610082,13.2709041 C22.342126,13.699726 22.6380822,13.974663 22.6347068,14.3580712 C22.6280329,14.9449205 21.9317918,15.2039014 21.2801973,15.2139507 C20.143474,15.2316712 19.4825973,14.9071014 18.9571178,14.6616219 L18.5476274,16.5777425 C19.0747945,16.8207671 20.0509589,17.0326466 21.0632548,17.0418521 C23.4393425,17.0418521 24.9939945,15.8689973 25.0023562,14.0503014 C25.0116384,11.7423342 21.8098959,11.6145315 21.8317589,10.5829041 C21.8393534,10.2701479 22.1378411,9.9363726 22.7919671,9.85145205 C23.1156164,9.80856986 24.0093918,9.77573699 25.0225315,10.2423781 L25.4202849,8.38847123 C24.8753973,8.19001644 24.1750904,8 23.3031781,8 C21.0666301,8 19.4935671,9.18888767 19.4809096,10.890674" id="Fill-1" fill="url(#linearGradient-1)"></path>
                                <path d="M34.0751,1 C35.6879,1 37,2.3121 37,3.9249 L37,21.0751 C37,22.6879 35.6879,24 34.0751,24 L3.9249,24 C2.3121,24 1,22.6879 1,21.0751 L1,3.9249 C1,2.3121 2.3121,1 3.9249,1 L34.0751,1 L34.0751,1 Z M34.0751,0 L3.9249,0 C1.7572,0 0,1.7572 0,3.9249 L0,21.0751 C0,23.2428 1.7572,25 3.9249,25 L34.0751,25 C36.2428,25 38,23.2428 38,21.0751 L38,3.9249 C38,1.7572 36.2428,0 34.0751,0 L34.0751,0 Z" id="Shape" fill="#E3EAED"></path>
                            </g>
                        </g>
                    </g>
                    <g id="15-mastercard-/-Primitives-/-border_no_text" transform="translate(46.000000, 0.000000)">
                        <g id="mastercard" stroke-width="1" transform="translate(8.000000, 6.000000)">
                            <g id="Layer_1" fill-rule="nonzero">
                                <g id="Group">
                                    <g id="XMLID_328_">
                                        <polygon id="Rectangle-path" fill="#FF5F00" points="7.9826087 1.58913043 13.8032609 1.58913043 13.8032609 12.0478261 7.9826087 12.0478261"></polygon>
                                        <path d="M8.35217391,6.81847826 C8.35217391,4.69347826 9.35,2.80869565 10.8836957,1.58913043 C9.75652174,0.702173913 8.33369565,0.166304348 6.78152174,0.166304348 C3.10434783,0.166304348 0.129347826,3.14130435 0.129347826,6.81847826 C0.129347826,10.4956522 3.10434783,13.4706522 6.78152174,13.4706522 C8.33369565,13.4706522 9.75652174,12.9347826 10.8836957,12.0478261 C9.35,10.8467391 8.35217391,8.94347826 8.35217391,6.81847826 Z" id="XMLID_330_" fill="#EB001B"></path>
                                        <path d="M21.6565217,6.81847826 C21.6565217,10.4956522 18.6815217,13.4706522 15.0043478,13.4706522 C13.4521739,13.4706522 12.0293478,12.9347826 10.9021739,12.0478261 C12.4543478,10.8282609 13.4336957,8.94347826 13.4336957,6.81847826 C13.4336957,4.69347826 12.4358696,2.80869565 10.9021739,1.58913043 C12.0293478,0.702173913 13.4521739,0.166304348 15.0043478,0.166304348 C18.6815217,0.166304348 21.6565217,3.15978261 21.6565217,6.81847826 Z" id="Shape" fill="#F79E1B"></path>
                                    </g>
                                </g>
                            </g>
                        </g>
                        <path d="M34.0751,1 C35.6879,1 37,2.3121 37,3.9249 L37,21.0751 C37,22.6879 35.6879,24 34.0751,24 L3.9249,24 C2.3121,24 1,22.6879 1,21.0751 L1,3.9249 C1,2.3121 2.3121,1 3.9249,1 L34.0751,1 L34.0751,1 Z M34.0751,0 L3.9249,0 C1.7572,0 0,1.7572 0,3.9249 L0,21.0751 C0,23.2428 1.7572,25 3.9249,25 L34.0751,25 C36.2428,25 38,23.2428 38,21.0751 L38,3.9249 C38,1.7572 36.2428,0 34.0751,0 L34.0751,0 Z" id="Shape" fill="#E3EAED"></path>
                    </g>
                    <g id="13-discover-/-Primitives-/-border" transform="translate(138.000000, 0.000000)" stroke-width="1">
                        <g id="discover-copy-3" transform="translate(0.000000, -0.000000)">
                            <g id="Group-2" transform="translate(3.000000, 10.000000)">
                                <path d="M35,5.3099 C35,5.3099 25.8177,11.7887 9,14.6901 L31.2553,14.6901 C33.3235,14.6901 35,13.0135 35,10.9454 L35,5.3099 Z" id="Shape" fill="#F58220"></path>
                                <path d="M2.64876826,3.9258102 C2.33837293,4.20617916 1.93513531,4.32849518 1.2968446,4.32849518 L1.03167304,4.32849518 L1.03167304,0.97935715 L1.2968446,0.97935715 C1.93513531,0.97935715 2.32253079,1.09347579 2.64876826,1.38895004 C2.99047945,1.69308221 3.19596668,2.16447785 3.19596668,2.64968932 C3.19596668,3.13591394 2.99047945,3.62177014 2.64876826,3.9258102 Z M1.49468709,0.121118654 L0.0445790333,0.121118654 L0.0445790333,5.18581262 L1.48713444,5.18581262 C2.25409645,5.18581262 2.80792646,5.00491754 3.29415108,4.60112729 C3.87192851,4.12300794 4.21354759,3.40237498 4.21354759,2.65705775 C4.21354759,1.16237066 3.09686123,0.121118654 1.49468709,0.121118654 L1.49468709,0.121118654 Z" id="Fill-6" fill="#1B1A19"></path>
                                <polygon id="Fill-7" fill="#1B1A19" points="4.66818005 5.18572052 5.656103 5.18572052 5.656103 0.121118654 4.66818005 0.121118654"></polygon>
                                <path d="M8.07166029,2.06472766 C7.47886967,1.8453325 7.30479039,1.70063486 7.30479039,1.42698959 C7.30479039,1.10802845 7.61490941,0.865606931 8.04071286,0.865606931 C8.33673975,0.865606931 8.57999021,0.987278218 8.83733282,1.27575246 L9.35422855,0.59896168 C8.92943826,0.227408333 8.42129254,0.0374869143 7.86598884,0.0374869143 C6.96989501,0.0374869143 6.28638053,0.659751271 6.28638053,1.48860813 C6.28638053,2.18639895 6.60460483,2.54358385 7.53247504,2.87755818 C7.91913368,3.01396633 8.11596301,3.1048744 8.21534478,3.16603242 C8.41272673,3.29488793 8.51155587,3.4773488 8.51155587,3.69002027 C8.51155587,4.10044211 8.1852263,4.40439006 7.74450176,4.40439006 C7.27329033,4.40439006 6.89381591,4.16878435 6.66631548,3.72888876 L6.02811688,4.34350837 C6.48330196,5.01154913 7.02985565,5.30766812 7.78162026,5.30766812 C8.8082275,5.30766812 9.52839994,4.6250747 9.52839994,3.64470439 C9.52839994,2.83988705 9.19543877,2.47570214 8.07166029,2.06472766" id="Fill-8" fill="#1B1A19"></path>
                                <path d="M9.90041381,2.74243949 C9.90041381,4.23104763 11.069324,5.38540511 12.5736821,5.38540511 C12.9989329,5.38540511 13.3631179,5.30177337 13.8123161,5.09029928 L13.8123161,3.92737599 C13.4172759,4.32260043 13.0675515,4.48203495 12.6196427,4.48203495 C11.6246277,4.48203495 10.9185474,3.76066514 10.9185474,2.73507106 C10.9185474,1.76271392 11.6470093,0.995659813 12.5736821,0.995659813 C13.0448936,0.995659813 13.4015258,1.16375224 13.8123161,1.56551617 L13.8123161,0.403145514 C13.3785916,0.183197721 13.0220514,0.0921054406 12.5969848,0.0921054406 C11.1003635,0.0921054406 9.90041381,1.26985771 9.90041381,2.74243949" id="Fill-9" fill="#1B1A19"></path>
                                <polyline id="Fill-10" fill="#1B1A19" points="21.58491 3.52312521 20.2342758 0.121118654 19.1550764 0.121118654 21.3043568 5.3157734 21.8359894 5.3157734 24.0239542 0.121118654 22.9530442 0.121118654 21.58491 3.52312521"></polyline>
                                <polyline id="Fill-11" fill="#1B1A19" points="24.4706656 5.18581262 27.2723289 5.18581262 27.2723289 4.32849518 25.4578517 4.32849518 25.4578517 2.96137413 27.2054603 2.96137413 27.2054603 2.10350405 25.4578517 2.10350405 25.4578517 0.97935715 27.2723289 0.97935715 27.2723289 0.121118654 24.4706656 0.121118654 24.4706656 5.18581262"></polyline>
                                <path d="M29.2019378,2.45285999 L28.9133715,2.45285999 L28.9133715,0.918935981 L29.2175958,0.918935981 C29.8328601,0.918935981 30.167295,1.17673911 30.167295,1.66959532 C30.167295,2.1787542 29.8328601,2.45285999 29.2019378,2.45285999 Z M31.1838627,1.61635838 C31.1838627,0.668224972 30.530743,0.121118654 29.3914908,0.121118654 L27.9266459,0.121118654 L27.9266459,5.18581262 L28.9133715,5.18581262 L28.9133715,3.15129555 L29.042227,3.15129555 L30.4096244,5.18581262 L31.6244951,5.18581262 L30.0300579,3.05219009 C30.7741777,2.90086085 31.1838627,2.39188619 31.1838627,1.61635838 L31.1838627,1.61635838 Z" id="Fill-12" fill="#1B1A19"></path>
                                <circle id="Oval" fill="url(#linearGradient-2)" cx="16.7631902" cy="2.76316322" r="2.67105778"></circle>
                            </g>
                            <path d="M34.0751,1 C35.6879,1 37,2.3121 37,3.9249 L37,21.0751 C37,22.6879 35.6879,24 34.0751,24 L3.9249,24 C2.3121,24 1,22.6879 1,21.0751 L1,3.9249 C1,2.3121 2.3121,1 3.9249,1 L34.0751,1 L34.0751,1 Z M34.0751,0 L3.9249,0 C1.7572,0 0,1.7572 0,3.9249 L0,21.0751 C0,23.2428 1.7572,25 3.9249,25 L34.075,25 C36.2428,25 38,23.2428 38,21.0751 L38,3.9249 C38,1.7572 36.2428,0 34.0751,0 L34.0751,0 Z" id="Shape" fill="#E3EAED"></path>
                        </g>
                    </g>
                    <g id="10-amex-/-Primitives-/-border" transform="translate(92.000000, 0.000000)" stroke-width="1">
                        <g id="amex">
                            <path d="M33.3439568,25 L4.65604324,25 C2.63683243,25 1,23.2475969 1,21.085817 L1,3.91418298 C1,1.75240314 2.63683243,0 4.65604324,0 L33.3439568,0 C35.3631676,0 37,1.75240314 37,3.91418298 L37,21.0859212 C37,23.2475969 35.3631676,25 33.3439568,25 Z" id="Shape" fill="#006FAC"></path>
                            <g id="Group" transform="translate(3.000000, 7.000000)">
                                <path d="M1.9376142,4.80111909 L3.27640701,4.80111909 L3.57830062,4.07296564 L4.25414945,4.07296564 L4.55524365,4.80111909 L7.18948952,4.80111909 L7.18948952,4.24438319 L7.42463192,4.80346024 L8.7921466,4.80346024 L9.027289,4.23610353 L9.027289,4.80111909 L15.5738751,4.80111909 L15.5707916,3.60582139 L15.697499,3.60582139 C15.786177,3.60890485 15.8121009,3.61712741 15.8121009,3.76353468 L15.8121009,4.80111909 L19.1980259,4.80111909 L19.1980259,4.52286535 C19.4711406,4.66921551 19.8959158,4.80111909 20.4548786,4.80111909 L21.8793231,4.80111909 L22.184186,4.07296564 L22.8600348,4.07296564 L23.1581597,4.80111909 L25.9031247,4.80111909 L25.9031247,4.10945325 L26.3188208,4.80111909 L28.5184701,4.80111909 L28.5184701,0.228918382 L26.3415471,0.228918382 L26.3415471,0.768866552 L26.0367413,0.228918382 L23.8029456,0.228918382 L23.8029456,0.768866552 L23.5229788,0.228918382 L20.5056986,0.228918382 C20.0006392,0.228918382 19.5566209,0.299381161 19.1980259,0.495866108 L19.1980259,0.228918382 L17.1158337,0.228918382 L17.1158337,0.495866108 C16.8876005,0.293385544 16.5766278,0.228918382 16.2308234,0.228918382 L8.6237554,0.228918382 L8.11332851,1.4098266 L7.58914024,0.228918382 L5.19312024,0.228918382 L5.19312024,0.768866552 L4.92988408,0.228918382 L2.88646348,0.228918382 L1.9375,2.40275794 L0.817382813,4.80111909 L1.9376142,4.80111909 Z M27.8200092,4.15718979 L26.7095638,4.15718979 L25.2243066,1.69670262 L25.2243066,4.15718979 L23.6285017,4.15718979 L23.3235817,3.42595287 L21.6958001,3.42595287 L21.3999592,4.15718979 L20.4830295,4.15718979 C20.102165,4.15718979 19.6199461,4.07296564 19.3468314,3.79459769 C19.0714327,3.51622974 18.928166,3.13924816 18.928166,2.54311249 C18.928166,2.05689647 19.0138177,1.61242137 19.3506001,1.26119239 C19.6039007,0.999555069 20.0006392,0.878957508 20.5405874,0.878957508 L21.2991757,0.878957508 L21.2991757,1.58135836 L20.5565186,1.58135836 C20.2705562,1.58135836 20.1090743,1.62389869 19.9535308,1.77555926 C19.8199713,1.91362976 19.728324,2.17458187 19.728324,2.5181593 C19.728324,2.86938827 19.7981016,3.12263173 19.9437665,3.28805367 C20.0644212,3.41778741 20.2836324,3.45713008 20.4898816,3.45713008 L20.8417958,3.45713008 L21.9461885,0.879014609 L23.1202446,0.879014609 L24.446932,3.97977661 L24.446932,0.879014609 L25.6400027,0.879014609 L27.0173959,3.16214571 L27.0173959,0.879014609 L27.8200092,0.879014609 L27.8200092,4.15718979 Z M17.7448025,4.15718979 L18.5443323,4.15718979 L18.5443323,0.878957508 L17.7448025,0.878957508 L17.7448025,4.15718979 Z M17.2903347,1.76185499 C17.2903347,2.28450152 16.9415039,2.55453271 16.7381669,2.6356163 C16.9096415,2.70088288 17.0561059,2.81617003 17.1257692,2.9117002 C17.2364312,3.074781 17.255503,3.22038885 17.255503,3.51320338 L17.255503,4.15718979 L16.4651664,4.15718979 L16.4621972,3.74377769 C16.4621972,3.54649333 16.4810976,3.26281498 16.3385161,3.10510169 C16.2240284,2.98981453 16.0494703,2.96480424 15.7673908,2.96480424 L14.9262342,2.96480424 L14.9262342,4.15718979 L14.1426926,4.15718979 L14.1426926,0.878957508 L15.9449752,0.878957508 C16.3454254,0.878957508 16.6404668,0.889521214 16.8938245,1.03598558 C17.1417005,1.18239285 17.2903347,1.39617943 17.2903347,1.76185499 Z M13.5995468,4.15718979 L10.9819174,4.15718979 L10.9819174,0.878957508 L13.5995468,0.878957508 L13.5995468,1.56160137 L11.765516,1.56160137 L11.765516,2.15248374 L13.5555218,2.15248374 L13.5555218,2.8245068 L11.765516,2.8245068 L11.765516,3.47917111 L13.5995468,3.47917111 L13.5995468,4.15718979 Z M10.3979442,4.15718979 L9.59464571,4.15718979 L9.59167645,1.58969512 L8.4554213,4.15718979 L7.76740993,4.15718979 L6.62824263,1.58741108 L6.62824263,4.15718979 L5.03449333,4.15718979 L4.73339914,3.42595287 L3.101906,3.42595287 L2.79772834,4.15718979 L1.94669328,4.15718979 L3.34989615,0.878957508 L4.51413084,0.878957508 L5.84681383,3.98274587 L5.84681383,0.878957508 L7.12570757,0.878957508 L8.15118655,3.10281764 L9.09324079,0.878957508 L10.39783,0.878957508 L10.39783,4.15718979 L10.3979442,4.15718979 Z M23.0564627,2.74262379 L22.5142304,1.43575051 L21.9749675,2.74262379 L23.0564627,2.74262379 Z M16.2656551,2.2222042 C16.1579624,2.28758498 16.0306269,2.28975483 15.8780527,2.28975483 L14.92612,2.28975483 L14.92612,1.56160137 L15.8909576,1.56160137 C16.0275434,1.56160137 16.1700107,1.56771119 16.2625716,1.62075813 C16.3642116,1.66849466 16.4271371,1.77013465 16.4271371,1.9105463 C16.4271371,2.05381301 16.3672951,2.16910017 16.2656551,2.2222042 Z M4.4505202,2.74262379 L3.9142265,1.43575051 L3.38095916,2.74262379 L4.4505202,2.74262379 Z" id="Fill-4" fill="#FFFFFE"></path>
                                <path d="M17.3943217,7.54506212 C17.3943217,8.45593915 16.7147613,8.64403023 16.0298334,8.64403023 L15.052091,8.64403023 L15.052091,9.74385487 L13.5290328,9.74385487 L12.5641952,8.65836261 L11.5614425,9.74385487 L8.45759705,9.74385487 L8.45759705,6.46482317 L11.6091791,6.46482317 L12.5732743,7.53963751 L13.5699743,6.46482317 L16.0738013,6.46482317 C16.6956895,6.46482317 17.3943217,6.63698304 17.3943217,7.54506212 Z M11.1647611,9.06052579 L9.23816933,9.06052579 L9.23816933,8.40808841 L10.9584547,8.40808841 L10.9584547,7.73909172 L9.23816933,7.73909172 L9.23816933,7.14295605 L11.2027333,7.14295605 L12.0598211,8.09848615 L11.1647611,9.06052579 Z M14.2716329,9.44567283 L13.0685694,8.10996348 L14.2716329,6.81673736 L14.2716329,9.44567283 Z M16.0647222,7.9780599 L15.052091,7.9780599 L15.052091,7.14301315 L16.0738013,7.14301315 C16.3566802,7.14301315 16.5530509,7.25835741 16.5530509,7.54506212 C16.5530509,7.82868337 16.3658164,7.9780599 16.0647222,7.9780599 Z M21.3514863,6.46482317 L23.9667746,6.46482317 L23.9667746,7.14295605 L22.1318873,7.14295605 L22.1318873,7.73909172 L23.9219502,7.73909172 L23.9219502,8.40808841 L22.1318873,8.40808841 L22.1318873,9.06052579 L23.9667746,9.06349505 L23.9667746,9.74385487 L21.3514863,9.74385487 L21.3514863,6.46482317 Z M20.3616384,8.22005443 C20.5360252,8.28440739 20.6786067,8.39980875 20.7454721,8.49533892 C20.8561341,8.65539336 20.8721224,8.80482698 20.8753201,9.09381574 L20.8753201,9.74385487 L20.088638,9.74385487 L20.088638,9.33364043 C20.088638,9.13635607 20.1075955,8.84428385 19.9619306,8.69176677 C19.8474428,8.57430977 19.6729418,8.54621602 19.3870936,8.54621602 L18.5496486,8.54621602 L18.5496486,9.74385487 L17.7622813,9.74385487 L17.7622813,6.46482317 L19.5713589,6.46482317 C19.9680975,6.46482317 20.2570292,6.48229611 20.5142126,6.6195672 C20.7615175,6.76900083 20.9170039,6.97365123 20.9170039,7.34772066 C20.9169468,7.8711095 20.5678876,8.13817143 20.3616384,8.22005443 Z M19.8883843,7.81195274 C19.7835467,7.87413586 19.6539271,7.87950337 19.5014672,7.87950337 L18.5495344,7.87950337 L18.5495344,7.14301315 L19.5144291,7.14301315 C19.6539271,7.14301315 19.7935394,7.14598241 19.8883843,7.20228411 C19.9899101,7.25538815 20.0506657,7.35691394 20.0506657,7.49721138 C20.0506657,7.63750883 19.9899101,7.75056904 19.8883843,7.81195274 Z M26.9590445,8.01443331 C27.1116186,8.172375 27.1933874,8.371715 27.1933874,8.70918261 C27.1933874,9.41460982 26.752681,9.74385487 25.9624587,9.74385487 L24.43626,9.74385487 L24.43626,9.0407117 L25.9563488,9.0407117 C26.1049259,9.0407117 26.2103346,9.02106892 26.2764006,8.95957101 C26.3303041,8.90880812 26.3689615,8.83514768 26.3689615,8.74567022 C26.3689615,8.65014005 26.3271064,8.57430977 26.2733171,8.52885728 C26.2134181,8.4787796 26.1307356,8.45605335 25.9943211,8.45605335 C25.2614853,8.43104306 24.3438133,8.4787796 24.3438133,7.44113808 C24.3438133,6.96554287 24.6426234,6.46493737 25.4640801,6.46493737 L27.0349889,6.46493737 L27.0349889,7.16282724 L25.5975825,7.16282724 C25.4551152,7.16282724 25.3624401,7.16813764 25.2836406,7.2220411 C25.1978176,7.27514513 25.1659552,7.35394468 25.1659552,7.45798291 C25.1659552,7.58166394 25.2388733,7.66583098 25.3374298,7.7022044 C25.4201122,7.73098336 25.5089045,7.73937722 25.6424069,7.73937722 L26.0642128,7.75074035 C26.4895591,7.76113275 26.7815742,7.83467899 26.9590445,8.01443331 Z M30.0847597,9.32444715 C29.8943845,9.602758 29.5235128,9.74385487 29.0214226,9.74385487 L27.5081288,9.74385487 L27.5081288,9.0407117 L29.0152557,9.0407117 C29.1647464,9.0407117 29.2694128,9.02106892 29.3323953,8.95957101 C29.3869269,8.90880812 29.4250133,8.83514768 29.4250133,8.74567022 C29.4250133,8.65014005 29.3869269,8.57430977 29.3293119,8.52885728 C29.2724392,8.4787796 29.1896996,8.45605335 29.053228,8.45605335 C28.3174801,8.43104306 27.3995796,8.4787796 27.3995796,7.44113808 C27.3995796,6.96554287 27.7015303,6.46493737 28.5238435,6.46493737 L30.0847597,6.46493737 L30.0847597,5.8125 L28.6345055,5.8125 C28.1968254,5.8125 27.8789435,5.91733765 27.6537938,6.08030424 L27.6537938,5.8125 L25.5087903,5.8125 C25.1657839,5.8125 24.7631639,5.89752356 24.5727316,6.08030424 L24.5727316,5.8125 L20.7423316,5.8125 L20.7423316,6.08030424 C20.4374687,5.86035074 19.9231018,5.8125 19.6856754,5.8125 L17.1591222,5.8125 L17.1591222,6.08030424 C16.9179271,5.84670357 16.3816334,5.8125 16.0547295,5.8125 L13.2270821,5.8125 L12.5800123,6.51278811 L11.9739981,5.8125 L7.75,5.8125 L7.75,10.3878413 L11.8944562,10.3878413 L12.561226,9.67653265 L13.1892812,10.3878413 L15.7439281,10.3901253 L15.7439281,9.31382635 L15.9951159,9.31382635 C16.3340682,9.31907965 16.7338331,9.30543248 17.0865467,9.1529725 L17.0865467,10.3877842 L19.193635,10.3877842 L19.193635,9.19528443 L19.2953321,9.19528443 C19.4250088,9.19528443 19.4377994,9.20065193 19.4377994,9.33027147 L19.4377994,10.38767 L25.8388347,10.38767 C26.2452234,10.38767 26.6700557,10.2836317 26.9052552,10.0949125 L26.9052552,10.38767 L28.9356568,10.38767 C29.3581479,10.38767 29.7708177,10.3284561 30.0847597,10.1767384 L30.0847597,9.32444715 Z M30.0847597,7.16259883 L28.6566036,7.16259883 C28.5140221,7.16259883 28.4192913,7.16796634 28.3395211,7.22186979 C28.2568387,7.27491673 28.2250333,7.35377337 28.2250333,7.45775451 C28.2250333,7.58149263 28.2948109,7.66560258 28.3963938,7.70197599 C28.4790191,7.73075495 28.5678114,7.73920592 28.6983445,7.73920592 L29.1230626,7.75056904 C29.5516065,7.76113275 29.837626,7.83479319 30.0120699,8.01449041 C30.0438182,8.0395007 30.0628899,8.06753735 30.0847597,8.0956311 L30.0847597,7.16259883 Z" id="Fill-5" fill="#FFFFFE"></path>
                                <rect id="Rectangle" fill="#FFFFFE" x="30.0796875" y="5.8125" width="1" height="4.359375"></rect>
                                <path d="M29.2119824,9.01124685 L27.5185905,9.01124685 L27.5185905,9.745625 L29.2073517,9.745625 C29.9182131,9.745625 30.3392457,9.31496778 30.3392457,8.68364591 C30.3392457,8.08973301 29.9695142,7.74360918 29.3196694,7.74360918 L28.5431607,7.74360918 C28.3699172,7.74360918 28.248338,7.63592218 28.248338,7.47230331 C28.248338,7.30868444 28.3699172,7.20562815 28.5431607,7.20562815 L29.9556221,7.20562815 L30.2782291,6.47125 L28.5524221,6.47125 C27.8412883,6.47125 27.415625,6.90617475 27.415625,7.50045084 C27.415625,8.11788054 27.8180439,8.47335661 28.4401952,8.47335661 L29.2119824,8.47335661 C29.3848627,8.47335661 29.5114358,8.58095282 29.5114358,8.74466249 C29.5114358,8.90819056 29.3848627,9.01124685 29.2119824,9.01124685 L29.2119824,9.01124685 Z" id="Path" fill="#006FAC"></path>
                            </g>
                            <path d="M34.0751,1 C35.6879,1 37,2.3121 37,3.9249 L37,21.0751 C37,22.6879 35.6879,24 34.0751,24 L3.9249,24 C2.3121,24 1,22.6879 1,21.0751 L1,3.9249 C1,2.3121 2.3121,1 3.9249,1 L34.0751,1 L34.0751,1 Z M34.0751,0 L3.9249,0 C1.7572,0 0,1.7572 0,3.9249 L0,21.0751 C0,23.2428 1.7572,25 3.9249,25 L34.0751,25 C36.2428,25 38,23.2428 38,21.0751 L38,3.9249 C38,1.7572 36.2428,0 34.0751,0 L34.0751,0 Z" id="Shape" fill="#E3EAED"></path>
                        </g>
                    </g>
                    <g id="14-jcb-/-Primitives-/-border" transform="translate(230.000000, 0.000000)" stroke-width="1">
                        <g id="jcb">
                            <path d="M33.9961,24.5561 L4.1705,24.5561 C2.1893,24.5561 0.5833,22.9501 0.5833,20.9689 L0.5833,4.1433 C0.5833,2.1621 2.1893,0.5561 4.1705,0.5561 L33.9961,0.5561 C35.9772,0.5561 37.5833,2.1621 37.5833,4.1433 L37.5833,20.969 C37.5833,22.9501 35.9773,24.5561 33.9961,24.5561 Z" id="Shape" fill="#FFFFFF"></path>
                            <path d="M34.0751,1 C35.6879,1 37,2.3121 37,3.9249 L37,21.0751 C37,22.6879 35.6879,24 34.0751,24 L3.9249,24 C2.3121,24 1,22.6879 1,21.0751 L1,3.9249 C1,2.3121 2.3121,1 3.9249,1 L34.0751,1 L34.0751,1 Z M34.0751,0 L3.9249,0 C1.7572,0 0,1.7572 0,3.9249 L0,21.0751 C0,23.2428 1.7572,25 3.9249,25 L34.075,25 C36.2428,25 38,23.2428 38,21.0751 L38,3.9249 C38,1.7572 36.2428,0 34.0751,0 L34.0751,0 Z" id="Shape" fill="#E3EAED"></path>
                            <g id="Page-1" transform="translate(9.000000, 5.000000)">
                                <path d="M15.376,7.652 L15.376,8.713 L16.508,8.713 C16.543,8.713 16.61,8.707 16.643,8.699 L16.643,8.699 C16.861,8.652 17.041,8.453 17.041,8.182 L17.041,8.182 C17.041,7.913 16.861,7.714 16.643,7.666 L16.643,7.666 C16.61,7.659 16.543,7.652 16.508,7.652 L16.508,7.652 L15.376,7.652 Z" id="Fill-1"></path>
                                <path d="M16.432,0.001 C15.089,0.001 14,1.12 14,2.501 L14,2.501 L14,5.096 L17.442,5.096 C17.522,5.096 17.619,5.102 17.68,5.106 L17.68,5.106 C18.459,5.146 19.034,5.557 19.034,6.271 L19.034,6.271 C19.034,6.832 18.642,7.311 17.926,7.418 L17.926,7.418 L17.926,7.447 C18.715,7.504 19.32,7.95 19.32,8.653 L19.32,8.653 C19.32,9.414 18.657,9.903 17.772,9.903 L17.772,9.903 L14,9.903 L14,14.999 L17.567,14.999 C18.911,14.999 20,13.88 20,12.499 L20,12.499 L20,0.001 L16.432,0.001 Z" id="Fill-3" fill="url(#linearGradient-3)"></path>
                                <g id="Group-7" transform="translate(15.000000, 6.000000)">
                                    <mask id="mask-5" fill="white">
                                        <use xlink:href="#path-4"></use>
                                    </mask>
                                    <g id="Clip-6"></g>
                                    <path d="M0.376,0.076 L0.376,1.055 L1.402,1.055 C1.439,1.055 1.493,1.049 1.514,1.046 L1.514,1.046 C1.726,1.009 1.907,0.831 1.907,0.565 L1.907,0.565 C1.907,0.3 1.726,0.122 1.514,0.085 L1.514,0.085 C1.493,0.082 1.439,0.076 1.402,0.076 L1.402,0.076 L0.376,0.076 Z" id="Fill-5" mask="url(#mask-5)"></path>
                                </g>
                                <path d="M2.433,0 C1.089,0 0,1.119 0,2.5 L0,2.5 L0,8.675 C0.682,9.014 1.387,9.236 2.104,9.236 L2.104,9.236 C2.946,9.236 3.407,8.707 3.407,7.997 L3.407,7.997 L3.407,5.096 L5.5,5.096 L5.5,7.997 C5.5,9.132 4.821,10.042 2.497,10.042 L2.497,10.042 C1.098,10.042 0,9.731 0,9.731 L0,9.731 L0,15 L3.568,15 C4.911,15 6,13.88 6,12.5 L6,12.5 L6,0 L2.433,0 Z" id="Fill-8" fill="url(#linearGradient-6)"></path>
                                <path d="M9.433,0.001 C8.09,0.001 7,1.119 7,2.501 L7,2.501 L7,5.773 C7.616,5.23 8.681,4.89 10.413,4.97 L10.413,4.97 C11.341,5.013 12.323,5.267 12.323,5.267 L12.323,5.267 L12.323,6.326 C11.832,6.071 11.241,5.833 10.481,5.773 L10.481,5.773 C9.167,5.671 8.377,6.331 8.377,7.5 L8.377,7.5 C8.377,8.668 9.167,9.328 10.481,9.226 L10.481,9.226 C11.241,9.166 11.839,8.923 12.323,8.674 L12.323,8.674 L12.323,9.731 C12.323,9.731 11.341,9.987 10.413,10.03 L10.413,10.03 C8.681,10.11 7.616,9.772 7,9.227 L7,9.227 L7,14.999 L10.568,14.999 C11.911,14.999 13,13.88 13,12.499 L13,12.499 L13,0.001 L9.433,0.001 Z" id="Fill-10" fill="url(#linearGradient-7)"></path>
                                <g transform="translate(15.000000, 6.000000)">
                                    <path d="M0.5,1.577 L0.5,2.637 L1.631,2.637 C1.666,2.637 1.734,2.631 1.766,2.623 C1.984,2.577 2.165,2.377 2.165,2.107 C2.165,1.838 1.984,1.638 1.766,1.59 C1.734,1.583 1.666,1.577 1.631,1.577 L0.5,1.577 Z" id="Path" fill="url(#linearGradient-8)"></path>
                                    <path d="M0.5,0 L0.5,0.978 L1.525,0.978 C1.563,0.978 1.617,0.973 1.638,0.969 C1.849,0.932 2.031,0.755 2.031,0.49 C2.031,0.224 1.849,0.046 1.638,0.008 C1.617,0.006 1.563,0 1.525,0 L0.5,0 Z" id="Clip-5" fill="url(#linearGradient-9)"></path>
                                </g>
                            </g>
                        </g>
                    </g>
                    <g id="09-unionpay-/-Primitives-/-border" transform="translate(276.000000, 0.000000)" stroke-width="1">
                        <g id="unionpay">
                            <g id="union-pay-copy-3" transform="translate(4.000000, 3.000000)">
                                <g id="Group-2">
                                    <g id="Group-5">
                                        <mask id="mask-11" fill="white">
                                            <use xlink:href="#path-10"></use>
                                        </mask>
                                        <g id="Clip-2"></g>
                                        <path d="M28.4266078,0.0719115499 L21.0630879,0.0700552473 L21.0612037,0.0700552473 L21.0443277,0.071023753 C20.032749,0.101531683 18.7728632,0.900871739 18.5433983,1.88648773 L15.0611196,17.0666043 C14.8316548,18.0614211 15.455904,18.8709305 16.4601917,18.8858616 L24.1958854,18.8858616 C25.1847716,18.8376784 26.1458041,18.0475392 26.3713367,17.073061 L29.8537793,1.89286373 C30.0868487,0.88795833 29.4475257,0.0719115499 28.4266078,0.0719115499" id="Fill-1" fill="#17717C" mask="url(#mask-11)"></path>
                                        <path d="M15.0611196,17.0666043 L18.5433983,1.88648773 C18.7728632,0.900871739 20.032749,0.101531683 21.0443277,0.071023753 L18.1165822,0.0691674503 L12.8417578,0.0681989446 C11.8273937,0.0886182736 10.5510415,0.893527238 10.3216586,1.88648773 L6.83831488,17.0666043 C6.6080308,18.0614211 7.23318122,18.8709305 8.23681348,18.8858616 L16.4601917,18.8858616 C15.455904,18.8709305 14.8316548,18.0614211 15.0611196,17.0666043" id="Fill-3" fill="#233D6C" mask="url(#mask-11)"></path>
                                        <path d="M6.83831488,17.0666043 L10.3216586,1.88648773 C10.5510415,0.893527238 11.8273937,0.0886182736 12.8417578,0.0681989446 L6.08430041,0.0664233508 C5.06428365,0.0664233508 3.75639132,0.880533119 3.52332187,1.88648773 L0.0399781685,17.0666043 C0.0187602471,17.159258 0.00704533298,17.2500554 0,17.3389158 L0,17.6205089 C0.0681595005,18.3456775 0.630311534,18.8737553 1.43839484,18.8858616 L8.23681348,18.8858616 C7.23318122,18.8709305 6.6080308,18.0614211 6.83831488,17.0666043" id="Fill-4" fill="#CA242F" mask="url(#mask-11)"></path>
                                    </g>
                                    <g id="Group" transform="translate(3.522666, 0.000000)">
                                        <path d="M12.9289233,13.0059826 L13.6913758,13.0059826 L13.6772032,13.330997 L13.880289,13.330997 C13.982856,13.330997 14.0337298,13.2986328 14.0337298,13.2347921 L14.093779,13.024465 L14.7275313,13.024465 L14.6429054,13.330997 C14.5713051,13.5866825 14.3815727,13.7200942 14.0731346,13.733169 L13.6669629,13.733169 L13.6650787,14.2888492 C13.6576237,14.3777903 13.7393824,14.4231486 13.9075692,14.4231486 L14.289328,14.4231486 L14.1661166,14.8631731 L13.250469,14.8631731 C12.9938059,14.8751987 12.8678911,14.7547004 12.8705945,14.4990956 L12.9289233,13.0059826 L12.9289233,13.0059826 Z M13.8212229,12.3538555 C13.9188745,12.3669303 13.9735168,12.3288357 13.9800706,12.2390068 L14.0609281,11.9519256 L12.738044,11.9519256 L12.627039,12.3538555 L13.8212229,12.3538555 Z M14.2997321,11.0905204 L12.978896,11.0905204 L12.8208676,11.6351435 C12.8208676,11.6351435 13.0408294,11.4786491 13.4084156,11.4730802 C13.7750187,11.4674306 14.1934787,11.4730802 14.1934787,11.4730802 L14.2997321,11.0905204 Z M13.046564,10.5199899 L13.0096989,10.8339471 C13.0096989,10.8339471 13.4506876,10.5078028 13.8512066,10.5078028 L15.3310542,10.5078028 L14.7651337,12.5260881 C14.7181921,12.7568345 14.5169086,12.8716025 14.161447,12.8716025 L12.4841662,12.8716025 L12.091266,14.2888492 C12.0685735,14.3647962 12.1006052,14.4036978 12.1852311,14.4036978 L12.5152148,14.4036978 L12.3939695,14.8436415 L11.5549195,14.8436415 C11.2328823,14.8436415 11.0988571,14.7482437 11.1520248,14.5565603 L12.2622382,10.5199899 L13.046564,10.5199899 Z M9.3154048,11.8370769 L11.6530627,11.8370769 L11.5040457,12.373387 L10.5639033,12.373387 L10.4204571,12.891134 L11.3352854,12.891134 L11.1862684,13.427444 L10.2714401,13.427444 L10.0589332,14.1924021 C10.006339,14.3203256 10.0755635,14.3777903 10.2653778,14.3647962 L11.0109543,14.3647962 L10.872833,14.8631731 L9.44140157,14.8631731 C9.17007433,14.8631731 9.0770104,14.7102299 9.16212785,14.4036978 L9.43386471,13.427444 L8.84910207,13.427444 L8.99762752,12.891134 L9.58247208,12.891134 L9.72575449,12.373387 L9.16679743,12.373387 L9.3154048,11.8370769 Z M9.4615545,11.1293414 L9.58943549,11.1293414 C9.70691232,11.1293414 9.78596751,11.0905204 9.82307839,11.0136049 L10.155356,10.5236218 L11.0452798,10.5236218 L10.8596435,10.845892 L11.9266837,10.845892 L11.7913478,11.3396685 L10.5217133,11.3396685 C10.3754817,11.5563717 10.195416,11.6583069 9.97905879,11.6462006 L9.31769863,11.6462006 L9.4615545,11.1293414 L9.4615545,11.1293414 Z" id="Fill-6" fill="#FFFFFE"></path>
                                        <path d="M3.68896912,7.83109514 C3.58550103,8.33027914 3.34579586,8.7138074 2.97386782,8.98611893 C2.60538052,9.25374934 2.13006631,9.3880488 1.54817096,9.3880488 C1.00051921,9.3880488 0.599017148,9.25092453 0.342845564,8.97586891 C0.165155713,8.78039217 0.0767613605,8.53221258 0.0767613605,8.23205651 C0.0767613605,8.10800707 0.0918350962,7.97459541 0.121900645,7.83109514 L0.74197187,4.88562712 L1.67834578,4.88562712 L1.06679449,7.7976817 C1.04795232,7.8783098 1.04041545,7.95336899 1.04148044,8.02092227 C1.04041545,8.17007215 1.07801787,8.29234599 1.15420577,8.3876631 C1.2651288,8.52946848 1.44519441,8.59976585 1.69579526,8.59976585 C1.98391661,8.59976585 2.22132795,8.53035628 2.4055716,8.39048791 C2.58989717,8.25158805 2.71015937,8.05433571 2.7642282,7.7976817 L3.37774563,4.88562712 L4.30944995,4.88562712 L3.68896912,7.83109514" id="Fill-7" fill="#FFFFFE"></path>
                                        <path d="M7.9694443,5.71466801 L8.81707745,5.71466801 L8.65875624,6.35267116 L7.81121694,6.35267116 L7.9694443,5.71466801 M7.7050751,6.67227805 L8.54520043,6.67227805 L7.88704595,9.300964 L7.04860988,9.300964 L7.7050751,6.67227805" id="Fill-8" fill="#FFFFFE"></path>
                                        <path d="M10.4017788,8.58039574 C10.5310524,8.44238367 10.6236248,8.23302502 10.6800694,7.95425679 C10.6885074,7.91075474 10.6959624,7.86531568 10.7007139,7.81995733 C10.7053835,7.77548677 10.7072677,7.73376032 10.7072677,7.69582718 C10.7072677,7.53368318 10.6654053,7.40777744 10.5812709,7.31883633 C10.4976281,7.22900742 10.3787585,7.18453687 10.225072,7.18453687 C10.0219042,7.18453687 9.85642084,7.25483424 9.72681948,7.39567111 C9.59598929,7.53650799 9.50341689,7.74957925 9.44508809,8.03294788 C9.4371416,8.07653064 9.43050588,8.12003269 9.42444362,8.16264694 C9.41977404,8.20614899 9.41838136,8.24690693 9.4192825,8.28395228 C9.4192825,8.44512777 9.46114489,8.56925792 9.54527927,8.65723053 C9.62892212,8.74528384 9.7473001,8.78878589 9.90303473,8.78878589 C10.1070217,8.78878589 10.2725051,8.7192956 10.4017788,8.58039574 M9.00418132,9.10088686 C8.81231888,8.92034125 8.71548651,8.67676206 8.71458536,8.36732448 C8.71458536,8.31454092 8.71786226,8.25433215 8.72490759,8.18855447 C8.73203485,8.12188899 8.7409644,8.0569991 8.75358046,7.99687104 C8.84058213,7.56984073 9.02580885,7.23086372 9.31114484,6.98074712 C9.59598929,6.72974272 9.93965408,6.60375627 10.3420573,6.60375627 C10.6715495,6.60375627 10.9328822,6.69455368 11.124335,6.87606779 C11.3155421,7.05855041 11.4114733,7.3048737 11.4114733,7.61810459 C11.4114733,7.67169524 11.4072952,7.73376032 11.400168,7.80050651 C11.39173,7.86805978 11.3814897,7.93294966 11.3696109,7.99687104 C11.2845754,8.41736394 11.0999221,8.75262834 10.8145042,8.99814454 C10.5291682,9.24543633 10.1864865,9.36859798 9.78686866,9.36859798 C9.45598377,9.36859798 9.1954703,9.27965687 9.00418132,9.10088686" id="Fill-9" fill="#FFFFFE"></path>
                                        <polyline id="Fill-10" fill="#CE3040" points="17.5385372 0.116767486 14.5939157 0.114850991 17.5216612 0.118858207 17.5385372 0.116767486"></polyline>
                                        <path d="M14.5939157,0.117516254 L9.35956102,0.111592542 C9.34645342,0.111592542 9.33277237,0.113509037 9.31909132,0.115425532 L14.5939157,0.117516254" id="Fill-11" fill="#2F486D"></path>
                                        <path d="M18.8849331,11.6110923 L21.6076266,11.6110923 L21.4478778,12.1668531 L20.5809742,12.1668531 L20.4323668,12.6835509 L21.2983693,12.6835509 L21.1375555,13.238424 L20.1730002,13.238424 L19.9548407,13.5635998 L20.426878,13.5635998 L20.5359168,14.2147585 C20.5489425,14.2795677 20.6072713,14.3110441 20.7069709,14.3110441 L20.8536122,14.3110441 L20.699516,14.8472734 L20.1804552,14.8472734 C19.9115856,14.8603483 19.7725632,14.7714072 19.7611759,14.5797237 L19.6360803,13.9850612 L19.2064789,14.6176569 C19.104895,14.7964269 18.9488327,14.8797991 18.7382919,14.866805 L17.9456919,14.866805 L18.09987,14.3304142 L18.347194,14.3304142 C18.4487779,14.3304142 18.5332399,14.2860244 18.6094278,14.1961955 L19.2817656,13.238424 L18.414862,13.238424 L18.5755119,12.6835509 L19.5157362,12.6835509 L19.6652447,12.1668531 L18.7241193,12.1668531 L18.8849331,11.6110923 L18.8849331,11.6110923 Z M19.1311921,10.500539 L19.9717986,10.500539 L20.0074349,10.8061026 C20.0018642,10.8839059 20.0488058,10.9210319 20.1485054,10.9210319 L20.2970309,10.9210319 L20.1467031,11.438779 L19.5289257,11.438779 C19.292989,11.4508046 19.1716618,11.3619442 19.1604384,11.1700993 L19.1311921,10.500539 Z M16.9687664,14.0434137 L17.1399025,13.4487512 L16.472562,13.4487512 L16.3005248,14.0434137 L16.9687664,14.0434137 Z M16.8013988,12.3010719 L16.5730808,13.1208313 C16.5730808,13.1208313 17.0045665,12.9114726 17.3007163,12.8938781 C17.3862433,12.577096 17.4718523,12.3010719 17.4718523,12.3010719 L16.8013988,12.3010719 Z M17.1343317,11.151617 L16.9067511,11.9342503 C16.9067511,11.9342503 17.2961286,11.7870375 17.631765,11.7453917 C17.7058229,11.4721117 17.8027372,11.151617 17.8027372,11.151617 L17.1343317,11.151617 Z M16.1696946,11.151617 L16.3465652,10.5384722 L17.2405852,10.5384722 L17.2019997,10.7634883 C17.2019997,10.7634883 17.6589633,10.5384722 17.9879639,10.5384722 C18.3171284,10.5384722 19.0935078,10.5384722 19.0935078,10.5384722 L18.917784,11.151617 L18.7438626,11.151617 L17.9098918,14.0434137 L18.0838132,14.0434137 L17.9184118,14.6176569 L17.7444084,14.6176569 L17.6720709,14.866805 L16.8062322,14.866805 L16.8784878,14.6176569 L15.1702404,14.6176569 L15.3367068,14.0434137 L15.5078429,14.0434137 L16.3426329,11.151617 L16.1696946,11.151617 L16.1696946,11.151617 Z" id="Fill-12" fill="#FFFFFE"></path>
                                        <path d="M4.55153087,6.67139025 L5.21289103,6.67139025 L5.13727658,7.0511252 L5.23222473,6.94273327 C5.44661585,6.71682931 5.70696548,6.60472477 6.01442054,6.60472477 C6.29271119,6.60472477 6.49342126,6.68438437 6.61941803,6.84459136 C6.74353058,7.00487905 6.77736456,7.22626332 6.71870807,7.51060046 L6.35431689,9.3019325 L5.6746061,9.3019325 L6.00360677,7.67823266 C6.03752267,7.51060046 6.02810159,7.3855018 5.97583505,7.3048737 C5.92422389,7.22432631 5.82542538,7.18453687 5.68304412,7.18453687 C5.50813963,7.18453687 5.36100686,7.23820822 5.24115428,7.34474385 C5.12072824,7.45224799 5.04134536,7.60139787 5.00235026,7.79122499 L4.69915518,9.3019325 L4.01796978,9.3019325 L4.55153087,6.67139025" id="Fill-13" fill="#FFFFFE"></path>
                                        <path d="M12.1362414,6.67139025 L12.798257,6.67139025 L12.7230521,7.0511252 L12.8169353,6.94273327 C13.0314903,6.71682931 13.292823,6.60472477 13.5992949,6.60472477 C13.8775856,6.60472477 14.0787053,6.68438437 14.203719,6.84459136 C14.3270123,7.00487905 14.3627305,7.22626332 14.3025175,7.51060046 L13.9396009,9.3019325 L13.2589071,9.3019325 L13.5880716,7.67823266 C13.6218236,7.51060046 13.6124845,7.3855018 13.5607095,7.3048737 C13.5071322,7.22432631 13.4102179,7.18453687 13.2684101,7.18453687 C13.0934237,7.18453687 12.9468643,7.23820822 12.8255372,7.34474385 C12.7051111,7.45224799 12.6253186,7.60139787 12.5877162,7.79122499 L12.2831284,9.3019325 L11.6028442,9.3019325 L12.1362414,6.67139025" id="Fill-14" fill="#FFFFFE"></path>
                                        <path d="M15.8885366,7.02061727 L16.7432338,7.02061727 C16.965981,7.02061727 17.1426878,6.9696093 17.2716338,6.86872329 C17.3995148,6.76678806 17.4841407,6.61118148 17.5310823,6.40004723 C17.5385372,6.36106488 17.5432068,6.32587583 17.5488595,6.2935116 C17.5518087,6.26300367 17.5554952,6.23233432 17.5554952,6.2027949 C17.5554952,6.05170801 17.5010987,5.94242828 17.391896,5.8739065 C17.2828572,5.8043355 17.111803,5.77108347 16.8748013,5.77108347 L16.1489682,5.77108347 L15.8885366,7.02061727 M15.4082252,5.04115299 L17.3298807,5.04115299 C17.699433,5.04115299 17.9851786,5.12371811 18.1816287,5.28570069 C18.3771776,5.44970099 18.475075,5.68496717 18.475075,5.99149923 L18.475075,6.00078075 C18.475075,6.05913322 18.4711427,6.1249109 18.465572,6.19617678 C18.456069,6.26655486 18.4438625,6.33790145 18.4280515,6.41199213 C18.3434256,6.81771532 18.1468116,7.14377892 17.8432069,7.39107071 C17.5385372,7.63747471 17.1775868,7.76160486 16.762076,7.76160486 L15.7314912,7.76160486 L15.4128947,9.3019325 L14.5205951,9.3019325 L15.4082252,5.04115299" id="Fill-15" fill="#FFFFFE"></path>
                                        <path d="M22.4687957,9.81047871 C22.1867366,10.4013479 21.9178671,10.7458938 21.7600024,10.9061008 C21.6018921,11.0646129 21.2889482,11.4332101 20.5349337,11.4053655 L20.5998163,10.9543647 C21.2343059,10.7617128 21.5774792,9.8936895 21.7730281,9.50935414 L21.5399587,6.67881546 L22.0307562,6.67227805 L22.4424986,6.67227805 L22.4867367,8.44795258 L23.2585284,6.67227805 L24.039823,6.67227805 L22.4687957,9.81047871" id="Fill-16" fill="#FFFFFE"></path>
                                        <path d="M19.804431,8.24133803 C19.6689312,8.6350356 19.3663915,8.89532152 19.1294717,8.82123083 C18.8925519,8.74899644 18.807926,8.36918078 18.9451462,7.97459541 C19.0804821,7.58001004 19.3850699,7.32069263 19.6201054,7.39478332 C19.8570252,7.4670177 19.9425523,7.84675265 19.804431,8.24133803 M20.2839233,6.8862371 L19.973519,7.09656426 C19.6491879,6.84652837 19.3531201,6.69180958 18.781547,6.95298329 C18.0030377,7.30858631 17.3524094,10.0364634 19.4959929,9.1379322 L19.6182212,9.28062538 L20.4615312,9.3019325 L21.0153271,6.82328423 L20.2839233,6.8862371" id="Fill-17" fill="#FFFFFE"></path>
                                    </g>
                                </g>
                            </g>
                            <path d="M34.0751,1 C35.6879,1 37,2.3121 37,3.9249 L37,21.0751 C37,22.6879 35.6879,24 34.0751,24 L3.9249,24 C2.3121,24 1,22.6879 1,21.0751 L1,3.9249 C1,2.3121 2.3121,1 3.9249,1 L34.0751,1 L34.0751,1 Z M34.0751,0 L3.9249,0 C1.7572,0 0,1.7572 0,3.9249 L0,21.0751 C0,23.2428 1.7572,25 3.9249,25 L34.075,25 C36.2428,25 38,23.2428 38,21.0751 L38,3.9249 C38,1.7572 36.2428,0 34.0751,0 L34.0751,0 Z" id="Shape" fill="#E3EAED"></path>
                        </g>
                    </g>
                    <g id="12-diners-/-Primitives-/-border" transform="translate(184.000000, 0.000000)" stroke-width="1">
                        <g id="diners">
                            <g id="Layer_1">
                                <path d="M33.4778,24.5561 L4.6888,24.5561 C2.4214,24.5561 0.5833,22.718 0.5833,20.4506 L0.5833,4.6617 C0.5833,2.3943 2.4214,0.5562 4.6888,0.5562 L33.4778,0.5562 C35.7452,0.5562 37.5833,2.3943 37.5833,4.6617 L37.5833,20.4507 C37.5833,22.7181 35.7452,24.5561 33.4778,24.5561 Z" id="Shape" fill="#FFFFFF"></path>
                                <g id="Group" transform="translate(10.000000, 5.000000)">
                                    <path d="M10.5449,14.6289 C14.4424,14.6478 18,11.4511 18,7.5619 C18,3.3093 14.4424,0.3699 10.5449,0.371 L7.1904,0.371 C3.2465,0.3699 0,3.3099 0,7.5619 C0,11.452 3.2465,14.6478 7.1904,14.6289 L10.5449,14.6289 Z" id="Shape" fill="#0069AA"></path>
                                    <path d="M8.6868,11.3488 L8.6868,3.6265 C10.2391,4.2219 11.341,5.7247 11.3438,7.4875 C11.341,9.2502 10.2391,10.7523 8.6868,11.3488 M3.0702,7.4875 C3.0735,5.7259 4.174,4.2238 5.7253,3.6266 L5.7253,11.3473 C4.174,10.7505 3.0735,9.2493 3.0702,7.4875 M7.2064,0.9605 C3.6023,0.9616 0.6817,3.8826 0.681,7.4875 C0.6817,11.0919 3.6024,14.0122 7.2064,14.0132 C10.8115,14.0121 13.7326,11.0918 13.733,7.4875 C13.7326,3.8826 10.8115,0.9616 7.2064,0.9605" id="Shape" fill="#FFFFFF"></path>
                                </g>
                                <path d="M34.0751,1 C35.6879,1 37,2.3121 37,3.9249 L37,21.0751 C37,22.6879 35.6879,24 34.0751,24 L3.9249,24 C2.3121,24 1,22.6879 1,21.0751 L1,3.9249 C1,2.3121 2.3121,1 3.9249,1 L34.0751,1 L34.0751,1 Z M34.0751,0 L3.9249,0 C1.7572,0 0,1.7572 0,3.9249 L0,21.0751 C0,23.2428 1.7572,25 3.9249,25 L34.075,25 C36.2428,25 38,23.2428 38,21.0751 L38,3.9249 C38,1.7572 36.2428,0 34.0751,0 L34.0751,0 Z" id="Shape" fill="#E3EAED"></path>
                            </g>
                        </g>
                    </g>
                </g>
            </g>
        </g>
    </g>
</svg>